<?xml version="1.0" standalone="no"?>
<!DOCTYPE svg PUBLIC "-//W3C//DTD SVG 20010904//EN"
 "http://www.w3.org/TR/2001/REC-SVG-20010904/DTD/svg10.dtd">
<svg version="1.0" xmlns="http://www.w3.org/2000/svg"
 width="546.000000pt" height="546.000000pt" viewBox="0 0 546.000000 546.000000"
 preserveAspectRatio="xMidYMid meet">
<metadata>
Created by potrace 1.11, written by Peter Selinger 2001-2013
</metadata>
<g transform="translate(0.000000,546.000000) scale(0.100000,-0.100000)"
fill="#000000" stroke="none">
<path d="M2856 5438 c-56 -12 -127 -50 -220 -118 -46 -32 -95 -64 -109 -71
-15 -7 -27 -15 -27 -19 0 -4 -8 -10 -17 -14 -21 -6 -34 -15 -120 -74 l-62 -43
-178 -3 c-225 -5 -248 -12 -598 -188 -145 -73 -177 -91 -235 -137 -123 -99
-154 -153 -184 -331 -1 -3 -16 -34 -35 -70 -77 -148 -87 -273 -33 -432 34
-100 34 -119 -1 -213 -14 -38 -29 -83 -32 -100 -14 -62 -12 -183 2 -236 29
-105 31 -119 26 -176 -7 -87 -7 -274 1 -403 12 -191 15 -320 8 -320 -3 0 -25
7 -49 16 -76 29 -126 7 -183 -82 l-31 -49 6 -200 c3 -110 7 -218 9 -240 3 -22
7 -67 10 -100 10 -119 18 -200 21 -220 2 -11 4 -30 4 -43 1 -12 11 -30 22 -40
35 -28 79 -74 79 -83 0 -4 24 -19 54 -33 51 -24 66 -42 71 -86 8 -60 15 -109
20 -130 3 -14 8 -38 11 -54 2 -16 7 -32 9 -36 2 -3 6 -18 9 -33 7 -39 44 -143
72 -205 13 -29 24 -54 24 -56 0 -7 172 -301 199 -339 146 -210 532 -409 896
-463 89 -13 474 -16 542 -5 252 43 526 145 642 238 51 41 200 189 274 273 54
61 98 126 147 215 18 33 40 70 48 83 8 12 10 22 6 22 -5 0 -4 4 1 8 6 4 29 43
50 87 22 44 42 82 45 85 3 3 14 21 24 42 11 20 27 47 37 59 17 23 17 23 85 6
57 -13 72 -14 98 -3 79 34 182 200 283 456 61 154 86 259 87 365 1 137 -12
180 -69 235 -35 34 -38 35 -115 34 l-79 -1 5 36 c3 20 8 39 11 44 2 4 6 17 9
30 10 54 13 68 18 75 3 5 7 19 10 33 3 13 19 67 36 119 58 173 61 199 50 545
-2 66 1 75 49 171 89 176 99 211 100 357 2 149 -5 181 -63 257 -42 57 -66 96
-66 110 0 5 -5 21 -12 37 -6 15 -12 35 -13 44 -4 32 -40 116 -73 169 -64 102
-196 246 -269 295 -24 15 -43 31 -43 36 0 8 53 49 64 49 20 0 119 86 135 118
22 43 22 129 0 143 -21 14 -65 3 -146 -37 l-73 -36 -62 31 c-56 28 -91 51
-138 94 -189 172 -301 233 -496 272 -107 21 -169 50 -221 101 -29 28 -154 105
-194 120 -55 19 -112 24 -163 12z"/>
</g>
</svg>
